<?xml version="1.0" encoding="UTF-8" standalone="no"?>
<!DOCTYPE svg PUBLIC "-//W3C//DTD SVG 1.1//EN" "http://www.w3.org/Graphics/SVG/1.1/DTD/svg11.dtd">
<svg width="100%" height="100%" viewBox="0 0 1418 1418" version="1.1" xmlns="http://www.w3.org/2000/svg" xmlns:xlink="http://www.w3.org/1999/xlink" xml:space="preserve" xmlns:serif="http://www.serif.com/" style="fill-rule:evenodd;clip-rule:evenodd;stroke-linejoin:round;stroke-miterlimit:1.41421;">
    <g transform="matrix(0.978377,-0.206831,0.206831,0.978377,-302.629,29.4857)">
        <path d="M813.305,476.778C813.305,410.43 759.438,356.563 693.089,356.563L452.659,356.563C386.31,356.563 332.444,410.43 332.444,476.778L332.444,1131.26C332.444,1197.61 386.31,1251.48 452.659,1251.48L693.089,1251.48C759.438,1251.48 813.305,1197.61 813.305,1131.26L813.305,476.778Z" style="fill:rgb(134,162,210);"/>
        <g transform="matrix(1,0,0,1,3.00783,-5.75081)">
            <rect x="378.677" y="447.069" width="382.379" height="691.592"/>
        </g>
        <g transform="matrix(1,0,0,1,20.5283,-5.66884)">
            <circle cx="552.346" cy="1194.23" r="30.245" style="fill:rgb(82,101,133);"/>
        </g>
    </g>
    <g transform="matrix(0.962772,0.270313,-0.270313,0.962772,541.948,-266.431)">
        <path d="M813.305,476.778C813.305,410.43 759.438,356.563 693.089,356.563L452.659,356.563C386.31,356.563 332.444,410.43 332.444,476.778L332.444,1131.26C332.444,1197.61 386.31,1251.48 452.659,1251.48L693.089,1251.48C759.438,1251.48 813.305,1197.61 813.305,1131.26L813.305,476.778Z" style="fill:rgb(244,241,150);"/>
        <g transform="matrix(1,0,0,1,3.00783,-5.75081)">
            <rect x="378.677" y="447.069" width="382.379" height="691.592"/>
        </g>
        <g transform="matrix(1,0,0,1,20.5283,-5.66884)">
            <circle cx="552.346" cy="1194.23" r="30.245" style="fill:rgb(163,163,103);"/>
        </g>
    </g>
    <g transform="matrix(0.99966,0.0260909,-0.0260909,0.99966,159.167,-135.844)">
        <path d="M813.305,476.778C813.305,410.43 759.438,356.563 693.089,356.563L452.659,356.563C386.31,356.563 332.444,410.43 332.444,476.778L332.444,1131.26C332.444,1197.61 386.31,1251.48 452.659,1251.48L693.089,1251.48C759.438,1251.48 813.305,1197.61 813.305,1131.26L813.305,476.778Z" style="fill:rgb(149,53,146);"/>
        <g transform="matrix(1,0,0,1,3.00783,-5.75081)">
            <rect x="378.677" y="447.069" width="382.379" height="691.592"/>
        </g>
        <g transform="matrix(1,0,0,1,20.5283,-5.66884)">
            <circle cx="552.346" cy="1194.23" r="30.245" style="fill:rgb(108,28,106);"/>
        </g>
    </g>
</svg>
